<svg width="15" height="15" viewBox="0 0 15 15" fill="none" xmlns="http://www.w3.org/2000/svg">
<path d="M2.0025 14.274C1.8225 14.202 1.6185 14.106 1.3905 13.986C1.1745 13.878 0.9645 13.728 0.7605 13.536C0.5685 13.344 0.4125 13.104 0.2925 12.816C0.1725 12.468 0.0885 12.126 0.0405 11.79C0.00450005 11.454 -0.00749998 11.064 0.00449996 10.62C0.00449996 9.996 0.0465 9.456 0.1305 9C0.2265 8.532 0.3705 8.058 0.5625 7.578C0.5865 7.542 0.6285 7.44 0.6885 7.272C0.7605 7.092 0.8385 6.9 0.9225 6.696C1.0185 6.492 1.0905 6.336 1.1385 6.228C1.2345 6.024 1.3785 5.754 1.5705 5.418C1.7745 5.07 1.9905 4.734 2.2185 4.41C2.5665 3.894 2.8545 3.48 3.0825 3.168C3.3225 2.844 3.5505 2.574 3.7665 2.358C3.9825 2.13 4.2225 1.914 4.4865 1.71C4.7505 1.506 5.0865 1.266 5.4945 0.99C5.7585 0.798 6.0825 0.684 6.4665 0.648C6.8505 0.612 7.2165 0.678 7.5645 0.846C7.9245 1.014 8.1945 1.302 8.3745 1.71C8.5065 1.962 8.5665 2.274 8.5545 2.646C8.5425 3.018 8.4765 3.414 8.3565 3.834C8.2365 4.242 8.0745 4.632 7.8705 5.004C7.6665 5.364 7.4385 5.658 7.1865 5.886C7.0305 6.03 6.8445 6.066 6.6285 5.994C6.4245 5.91 6.2385 5.79 6.0705 5.634C5.9625 5.43 5.9025 5.31 5.8905 5.274C5.8905 5.238 5.9145 5.214 5.9625 5.202C6.0345 5.118 6.1305 4.974 6.2505 4.77C6.3705 4.566 6.4905 4.35 6.6105 4.122C6.7305 3.882 6.8145 3.69 6.8625 3.546C6.9585 3.042 7.0245 2.7 7.0605 2.52C7.0965 2.34 7.0605 2.196 6.9525 2.088C6.9045 2.04 6.8325 2.022 6.7365 2.034C6.6525 2.046 6.5085 2.106 6.3045 2.214C6.0285 2.334 5.6865 2.586 5.2785 2.97C4.8825 3.354 4.4985 3.798 4.1265 4.302C3.6465 4.938 3.2445 5.502 2.9205 5.994C2.5965 6.486 2.3505 6.99 2.1825 7.506C2.1585 7.554 2.1165 7.644 2.0565 7.776C2.0085 7.908 1.9845 7.974 1.9845 7.974C1.9965 8.022 1.9785 8.142 1.9305 8.334C1.8825 8.514 1.8285 8.67 1.7685 8.802C1.6365 9.354 1.5585 9.9 1.5345 10.44C1.5105 10.98 1.5405 11.454 1.6245 11.862C1.7205 12.258 1.8585 12.546 2.0385 12.726C2.1945 12.834 2.3985 12.87 2.6505 12.834C2.9025 12.798 3.1905 12.714 3.5145 12.582C3.8385 12.45 4.1805 12.306 4.5405 12.15C4.8285 12.03 5.0925 11.898 5.3325 11.754C5.5725 11.61 5.7525 11.484 5.8725 11.376C5.9685 11.304 6.0885 11.232 6.2325 11.16C6.3885 11.076 6.5205 11.034 6.6285 11.034C6.7965 10.974 6.9105 10.998 6.9705 11.106C7.0305 11.214 7.0605 11.364 7.0605 11.556C7.0605 11.724 6.9465 11.922 6.7185 12.15C6.5025 12.378 6.2505 12.576 5.9625 12.744C5.8665 12.84 5.7405 12.936 5.5845 13.032C5.4285 13.116 5.2665 13.188 5.0985 13.248C4.8465 13.44 4.5345 13.626 4.1625 13.806C3.7905 13.986 3.4125 14.124 3.0285 14.22C2.6565 14.316 2.3145 14.334 2.0025 14.274Z" fill="black"/>
<path d="M10.4136 10.188C10.0776 10.248 9.82556 10.104 9.65756 9.756C9.50156 9.396 9.52556 8.814 9.72956 8.01C9.80156 7.866 9.86156 7.728 9.90956 7.596C9.95756 7.452 9.98156 7.338 9.98156 7.254C10.0296 7.098 10.0896 6.918 10.1616 6.714C10.2456 6.498 10.3296 6.3 10.4136 6.12C10.4976 5.928 10.5576 5.802 10.5936 5.742C10.6416 5.742 10.6896 5.7 10.7376 5.616C10.7976 5.532 10.8276 5.448 10.8276 5.364C10.8276 5.268 10.8456 5.16 10.8816 5.04C10.9296 4.92 10.9776 4.836 11.0256 4.788C11.0256 4.728 11.0496 4.662 11.0976 4.59C11.1456 4.518 11.1696 4.458 11.1696 4.41C11.1696 4.362 11.1816 4.32 11.2056 4.284C11.2416 4.248 11.2596 4.206 11.2596 4.158C11.3676 3.966 11.5056 3.684 11.6736 3.312C11.8536 2.928 12.0276 2.526 12.1956 2.106C12.3756 1.686 12.5256 1.314 12.6456 0.99C12.7656 0.666 12.8256 0.468 12.8256 0.396C12.8496 0.3 12.8856 0.216 12.9336 0.143999C12.9816 0.0719994 13.0536 0.0479997 13.1496 0.0720001C13.1976 0.0359999 13.2576 0.0179998 13.3296 0.0179998C13.4136 0.00599992 13.4796 0 13.5276 0C13.5276 0 13.5696 0.024 13.6536 0.0720001C13.7376 0.12 13.8216 0.191999 13.9056 0.288C14.0016 0.372 14.0556 0.48 14.0676 0.612C14.0796 0.743999 14.0856 0.881999 14.0856 1.026C14.0736 1.254 13.9896 1.512 13.8336 1.8C13.6776 2.088 13.5036 2.406 13.3116 2.754C13.1916 2.982 13.0716 3.198 12.9516 3.402C12.8436 3.606 12.7896 3.732 12.7896 3.78C12.7896 3.828 12.7656 3.9 12.7176 3.996C12.6696 4.092 12.6156 4.212 12.5556 4.356C12.4836 4.476 12.4116 4.62 12.3396 4.788C12.2676 4.956 12.2016 5.112 12.1416 5.256C12.0936 5.388 12.0696 5.472 12.0696 5.508C12.0576 5.556 12.0396 5.604 12.0156 5.652C12.0036 5.7 11.9736 5.748 11.9256 5.796C11.8776 5.796 11.8476 5.832 11.8356 5.904C11.8356 5.964 11.8356 5.994 11.8356 5.994C11.8356 6.042 11.8056 6.156 11.7456 6.336C11.6976 6.504 11.6136 6.708 11.4936 6.948C11.2656 7.584 11.1036 8.094 11.0076 8.478C10.9116 8.85 10.8516 9.168 10.8276 9.432C10.8036 9.72 10.7496 9.906 10.6656 9.99C10.5936 10.074 10.5096 10.14 10.4136 10.188ZM9.45956 13.014C9.21956 13.098 9.01556 13.14 8.84756 13.14C8.69156 13.128 8.51156 13.05 8.30756 12.906C8.07956 12.678 8.00156 12.444 8.07356 12.204C8.15756 11.964 8.36756 11.73 8.70356 11.502C8.93156 11.358 9.09956 11.286 9.20756 11.286C9.31556 11.274 9.48356 11.316 9.71156 11.412C10.1076 11.652 10.2816 11.922 10.2336 12.222C10.1856 12.51 9.92756 12.774 9.45956 13.014Z" fill="black"/>
</svg>
