<svg width="103" height="20" viewBox="0 0 103 20" fill="none" xmlns="http://www.w3.org/2000/svg">
<path d="M5.66016 13.6211L5.98828 15.8711L6.46875 13.8438L9.84375 1.9375H11.7422L15.0352 13.8438L15.5039 15.9062L15.8672 13.6094L18.5156 1.9375H20.7773L16.6406 19H14.5898L11.0742 6.56641L10.8047 5.26562L10.5352 6.56641L6.89062 19H4.83984L0.714844 1.9375H2.96484L5.66016 13.6211ZM27.832 19.2344C26.1133 19.2344 24.7148 18.6719 23.6367 17.5469C22.5586 16.4141 22.0195 14.9023 22.0195 13.0117V12.6133C22.0195 11.3555 22.2578 10.2344 22.7344 9.25C23.2188 8.25781 23.8906 7.48438 24.75 6.92969C25.6172 6.36719 26.5547 6.08594 27.5625 6.08594C29.2109 6.08594 30.4922 6.62891 31.4062 7.71484C32.3203 8.80078 32.7773 10.3555 32.7773 12.3789V13.2812H24.1875C24.2188 14.5312 24.582 15.543 25.2773 16.3164C25.9805 17.082 26.8711 17.4648 27.9492 17.4648C28.7148 17.4648 29.3633 17.3086 29.8945 16.9961C30.4258 16.6836 30.8906 16.2695 31.2891 15.7539L32.6133 16.7852C31.5508 18.418 29.957 19.2344 27.832 19.2344ZM27.5625 7.86719C26.6875 7.86719 25.9531 8.1875 25.3594 8.82812C24.7656 9.46094 24.3984 10.3516 24.2578 11.5H30.6094V11.3359C30.5469 10.2344 30.25 9.38281 29.7188 8.78125C29.1875 8.17188 28.4688 7.86719 27.5625 7.86719ZM48.3398 5.11328H43.2188V19H39.1055V5.11328H34.0781V1.9375H48.3398V5.11328ZM53.7656 7.67969C54.6094 6.61719 55.6875 6.08594 57 6.08594C58.3984 6.08594 59.4531 6.5 60.1641 7.32812C60.875 8.15625 61.2383 9.37891 61.2539 10.9961V19H57.293V11.0898C57.293 10.418 57.1562 9.92578 56.8828 9.61328C56.6094 9.29297 56.1445 9.13281 55.4883 9.13281C54.6758 9.13281 54.1016 9.39062 53.7656 9.90625V19H49.8164V1H53.7656V7.67969ZM70.5938 19C70.4531 18.7422 70.3281 18.3633 70.2188 17.8633C69.4922 18.7773 68.4766 19.2344 67.1719 19.2344C65.9766 19.2344 64.9609 18.875 64.125 18.1562C63.2891 17.4297 62.8711 16.5195 62.8711 15.4258C62.8711 14.0508 63.3789 13.0117 64.3945 12.3086C65.4102 11.6055 66.8867 11.2539 68.8242 11.2539H70.043V10.5859C70.043 9.42188 69.5391 8.83984 68.5312 8.83984C67.5938 8.83984 67.125 9.30078 67.125 10.2227H63.1758C63.1758 8.99609 63.6953 8 64.7344 7.23438C65.7812 6.46875 67.1133 6.08594 68.7305 6.08594C70.3477 6.08594 71.625 6.48047 72.5625 7.26953C73.5 8.05859 73.9805 9.14062 74.0039 10.5156V16.1289C74.0195 17.293 74.1992 18.1836 74.543 18.8008V19H70.5938ZM68.1211 16.4219C68.6133 16.4219 69.0195 16.3164 69.3398 16.1055C69.668 15.8945 69.9023 15.6562 70.043 15.3906V13.3633H68.8945C67.5195 13.3633 66.832 13.9805 66.832 15.2148C66.832 15.5742 66.9531 15.8672 67.1953 16.0938C67.4375 16.3125 67.7461 16.4219 68.1211 16.4219ZM79.8281 6.32031L79.957 7.80859C80.832 6.66016 82.0391 6.08594 83.5781 6.08594C84.8984 6.08594 85.8828 6.48047 86.5312 7.26953C87.1875 8.05859 87.5273 9.24609 87.5508 10.832V19H83.5898V10.9961C83.5898 10.3555 83.4609 9.88672 83.2031 9.58984C82.9453 9.28516 82.4766 9.13281 81.7969 9.13281C81.0234 9.13281 80.4492 9.4375 80.0742 10.0469V19H76.125V6.32031H79.8281ZM94.8398 14.2773L93.7266 15.3906V19H89.7773V0.988281H93.7266V10.5508L94.125 10.0234L97.1016 6.32031H101.836L97.3945 11.5352L102.129 19H97.6055L94.8398 14.2773Z" fill="black"/>
</svg>
